<?xml version="1.0" standalone="no"?>
<!DOCTYPE svg PUBLIC "-//W3C//DTD SVG 20010904//EN"
 "http://www.w3.org/TR/2001/REC-SVG-20010904/DTD/svg10.dtd">
<svg version="1.0" xmlns="http://www.w3.org/2000/svg"
 width="512.000000pt" height="512.000000pt" viewBox="0 0 512.000000 512.000000"
 preserveAspectRatio="xMidYMid meet">

<rect width="512" height="512" rx="96" fill="#066448"/>
<g transform="translate(0.000000,512.000000) scale(0.100000,-0.100000)"
fill="#ffffff" stroke="none">
<path d="M2440 5105 c-82 -23 -121 -50 -339 -233 l-199 -168 -139 -12 c-357
-32 -680 -146 -936 -329 -98 -71 -258 -236 -324 -333 -187 -278 -274 -615
-260 -1009 3 -103 13 -193 27 -264 12 -59 21 -109 19 -110 -142 -85 -223 -193
-248 -331 -8 -40 -11 -427 -11 -1188 l0 -1128 1630 0 1630 0 0 664 c0 421 -4
693 -11 742 -35 251 -215 465 -456 540 l-83 26 0 99 0 99 319 0 319 0 299 162
c524 284 574 298 1102 298 l314 0 -6 148 c-13 300 -105 521 -296 713 -193 192
-456 299 -738 299 -29 0 -53 3 -53 8 0 4 7 52 15 107 8 55 15 130 15 166 0
132 -67 269 -167 341 -73 53 -1112 662 -1163 682 -62 25 -191 30 -260 11z
m178 -304 c99 -51 1060 -625 1081 -645 32 -32 36 -87 17 -225 -9 -63 -17 -116
-19 -117 -1 -1 -123 7 -272 17 -148 10 -284 18 -300 19 -30 0 -102 55 -841
634 l-92 72 136 114 c74 63 149 123 166 133 40 22 78 22 124 -2z m-178 -821
c294 -230 543 -419 553 -420 9 0 17 -5 17 -10 0 -6 -40 -121 -90 -256 -49
-135 -90 -251 -90 -257 1 -7 92 -136 204 -287 l202 -275 -398 -3 -398 -2 0
-431 0 -432 -62 7 c-241 27 -582 107 -794 186 -295 111 -518 244 -690 415
-257 254 -367 548 -351 939 18 435 169 751 464 968 203 149 571 269 848 276
l50 1 535 -419z m1370 -475 c422 -28 479 -37 601 -101 169 -89 310 -266 352
-445 l7 -27 -213 -5 c-359 -9 -521 -57 -923 -276 l-111 -60 -179 245 c-98 134
-179 247 -178 250 0 3 36 104 80 225 l79 219 50 0 c28 0 223 -11 435 -25z
m-3365 -1207 c275 -450 804 -768 1533 -922 207 -44 559 -86 720 -86 l42 0 0
180 c0 206 -2 202 82 149 58 -37 99 -88 136 -166 27 -58 27 -60 30 -306 l4
-247 -865 0 c-948 0 -955 0 -1118 60 -372 135 -624 456 -669 850 -16 140 -13
434 5 477 16 38 42 73 55 73 4 0 24 -28 45 -62z m-38 -1299 c141 -147 335
-268 536 -333 196 -65 217 -66 1181 -66 l866 0 0 -150 0 -150 -1330 0 -1330 0
0 385 c0 212 2 385 4 385 2 0 35 -32 73 -71z"/>
<path d="M1752 3716 c-206 -95 -373 -176 -373 -180 0 -8 752 -356 768 -356 11
1 125 258 119 268 -3 5 -44 26 -91 47 -47 21 -82 41 -78 45 4 3 42 21 83 40
41 18 79 37 84 41 14 12 -105 269 -124 268 -8 -1 -183 -79 -388 -173z"/>
</g>
</svg>
